<svg width="126" height="20" viewBox="0 0 126 20" fill="none" xmlns="http://www.w3.org/2000/svg">
<path d="M105.102 19.4811V6.44021H109.207V19.4811H105.102ZM113.447 19.4811V11.8605C113.447 11.1986 113.241 10.6888 112.829 10.331C112.436 9.95533 111.944 9.7675 111.354 9.7675C110.942 9.7675 110.575 9.85695 110.254 10.0358C109.932 10.1968 109.672 10.4294 109.475 10.7335C109.296 11.0376 109.207 11.4133 109.207 11.8605L107.624 11.1628C107.624 10.1253 107.847 9.23978 108.295 8.50635C108.742 7.75502 109.35 7.18259 110.119 6.78903C110.889 6.37759 111.756 6.17188 112.722 6.17188C113.634 6.17188 114.448 6.37759 115.164 6.78903C115.897 7.20047 116.479 7.77291 116.908 8.50635C117.337 9.23978 117.552 10.1163 117.552 11.136V19.4811H113.447ZM121.792 19.4811V11.8605C121.792 11.1986 121.586 10.6888 121.175 10.331C120.781 9.95533 120.289 9.7675 119.699 9.7675C119.287 9.7675 118.921 9.85695 118.599 10.0358C118.277 10.1968 118.017 10.4294 117.82 10.7335C117.642 11.0376 117.552 11.4133 117.552 11.8605L115.191 11.5385C115.227 10.4294 115.486 9.48128 115.969 8.69418C116.47 7.88919 117.123 7.27203 117.928 6.8427C118.751 6.39548 119.672 6.17188 120.692 6.17188C121.693 6.17188 122.579 6.38654 123.348 6.81587C124.135 7.22731 124.752 7.82658 125.2 8.61368C125.665 9.3829 125.897 10.3131 125.897 11.4043V19.4811H121.792Z" fill="white"/>
<path d="M85.0442 19.4807L78.9531 0.536621H83.1391L87.5934 15.107H85.9566L90.3035 0.536621H93.604L97.9509 15.107H96.3409L100.768 0.536621H104.928L98.8364 19.4807H95.5359L91.1622 4.91041H92.7185L88.3447 19.4807H85.0442Z" fill="white"/>
<path d="M61.4473 19.4807L68.9605 0.536621H72.7708L80.2036 19.4807H75.7493L70.0607 3.75659H71.5902L65.821 19.4807H61.4473ZM65.7137 16.0461V12.6115H76.0444V16.0461H65.7137Z" fill="white"/>
<path d="M48.3535 19.4807V0.536621H52.5663V19.4807H48.3535ZM51.6003 19.4807V15.7778H60.965V19.4807H51.6003Z" fill="white"/>
<path d="M37.4669 19.7494C36.2684 19.7494 35.1951 19.4542 34.247 18.8639C33.3168 18.2736 32.5744 17.4686 32.0198 16.4489C31.4832 15.4293 31.2148 14.2665 31.2148 12.9606C31.2148 11.6548 31.4832 10.492 32.0198 9.47234C32.5744 8.45268 33.3168 7.64769 34.247 7.05736C35.1951 6.46704 36.2684 6.17188 37.4669 6.17188C38.3435 6.17188 39.1306 6.34182 39.8282 6.6817C40.5438 7.02159 41.1252 7.49564 41.5724 8.10385C42.0196 8.69418 42.2701 9.37395 42.3237 10.1432V15.7781C42.2701 16.5473 42.0196 17.236 41.5724 17.8442C41.1431 18.4346 40.5706 18.8997 39.8551 19.2396C39.1395 19.5794 38.3435 19.7494 37.4669 19.7494ZM38.2988 16.0464C39.1753 16.0464 39.8819 15.7602 40.4186 15.1878C40.9552 14.5974 41.2236 13.8551 41.2236 12.9606C41.2236 12.3524 41.0983 11.8158 40.8479 11.3507C40.6153 10.8855 40.2755 10.5278 39.8282 10.2773C39.3989 10.009 38.898 9.87483 38.3256 9.87483C37.7532 9.87483 37.2433 10.009 36.7961 10.2773C36.3668 10.5278 36.018 10.8855 35.7496 11.3507C35.4992 11.8158 35.374 12.3524 35.374 12.9606C35.374 13.551 35.4992 14.0787 35.7496 14.5438C36.0001 15.0089 36.3489 15.3756 36.7961 15.6439C37.2433 15.9123 37.7442 16.0464 38.2988 16.0464ZM41.0626 19.4811V15.9659L41.6797 12.7996L41.0626 9.63334V6.44021H45.0875V19.4811H41.0626Z" fill="white"/>
<path d="M25.2775 19.4808V12.048C25.2775 11.3683 25.0628 10.8227 24.6335 10.4112C24.222 9.98189 23.6943 9.76723 23.0503 9.76723C22.6031 9.76723 22.2096 9.86561 21.8697 10.0624C21.5298 10.2413 21.2615 10.5096 21.0647 10.8674C20.8679 11.2073 20.7695 11.6008 20.7695 12.048L19.1864 11.2699C19.1864 10.2502 19.401 9.35578 19.8304 8.58657C20.2597 7.81736 20.859 7.22703 21.6282 6.81559C22.3974 6.38626 23.2829 6.1716 24.2846 6.1716C25.3043 6.1716 26.1987 6.38626 26.9679 6.81559C27.7372 7.22703 28.3275 7.80841 28.7389 8.55974C29.1683 9.29317 29.3829 10.1518 29.3829 11.1357V19.4808H25.2775ZM16.6641 19.4808V0H20.7695V19.4808H16.6641Z" fill="white"/>
<path d="M7.08392 19.7761C5.52761 19.7761 4.18595 19.5257 3.05897 19.0248C1.94987 18.5061 0.930212 17.7279 0 16.6903L2.73697 13.9802C3.34519 14.6779 4.01601 15.2235 4.74945 15.617C5.50077 15.9927 6.36837 16.1805 7.35225 16.1805C8.24669 16.1805 8.9354 16.0195 9.4184 15.6975C9.91928 15.3755 10.1697 14.9283 10.1697 14.3559C10.1697 13.8371 10.0087 13.4167 9.68673 13.0947C9.36473 12.7727 8.9354 12.4955 8.39874 12.2629C7.87997 12.0303 7.29858 11.8067 6.65459 11.5921C6.02849 11.3774 5.40239 11.1359 4.77628 10.8676C4.15018 10.5814 3.56879 10.2325 3.03213 9.82109C2.51336 9.39176 2.09298 8.86405 1.77098 8.23794C1.44899 7.59395 1.28799 6.78896 1.28799 5.82297C1.28799 4.66021 1.56526 3.65844 2.11981 2.81767C2.69225 1.9769 3.47935 1.34185 4.48112 0.912524C5.48288 0.465308 6.63671 0.241699 7.94258 0.241699C9.26634 0.241699 10.4738 0.474252 11.565 0.939357C12.6741 1.40446 13.5865 2.03951 14.302 2.8445L11.565 5.55464C10.9926 4.96431 10.4112 4.52604 9.82089 4.23982C9.24845 3.9536 8.59552 3.81049 7.86208 3.81049C7.12864 3.81049 6.54726 3.9536 6.11793 4.23982C5.6886 4.50815 5.47394 4.9017 5.47394 5.42047C5.47394 5.90347 5.63494 6.29702 5.95694 6.60113C6.27893 6.88735 6.69932 7.13779 7.21809 7.35245C7.75475 7.56712 8.33613 7.78178 8.96223 7.99645C9.60623 8.21111 10.2413 8.46155 10.8674 8.74777C11.4935 9.03399 12.0659 9.40071 12.5847 9.84793C13.1214 10.2773 13.5507 10.8318 13.8727 11.5116C14.1947 12.1735 14.3557 12.9963 14.3557 13.9802C14.3557 15.787 13.7117 17.2091 12.4237 18.2467C11.1357 19.2663 9.35578 19.7761 7.08392 19.7761Z" fill="white"/>
</svg>
